<svg xmlns="http://www.w3.org/2000/svg" width="1200" height="720" viewBox="0 0 1200 720" role="img" aria-labelledby="title desc">
<title id="title">MCP와 AI 도구 보안</title>
<desc id="desc">편리한 연결일수록 권한 범위를 작게 잡아야 합니다</desc>
<defs>
  <linearGradient id="bg" x1="0" x2="1" y1="0" y2="1"><stop offset="0" stop-color="#0f172a"/><stop offset="1" stop-color="#111827"/></linearGradient>
  <filter id="shadow" x="-20%" y="-20%" width="140%" height="140%"><feDropShadow dx="0" dy="18" stdDeviation="22" flood-color="#020617" flood-opacity="0.35"/></filter>
  <style><![CDATA[
    .font { font-family: -apple-system, BlinkMacSystemFont, 'Apple SD Gothic Neo', 'Noto Sans KR', 'Nanum Gothic', 'Malgun Gothic', sans-serif; }
    .title { font-size: 58px; font-weight: 800; fill: #f8fafc; letter-spacing: -1.5px; }
    .sub { font-size: 27px; font-weight: 500; fill: #cbd5e1; }
    .label { font-size: 25px; font-weight: 750; fill: #f8fafc; }
    .small { font-size: 19px; font-weight: 650; fill: #94a3b8; }
  ]]></style>
</defs>
<rect width="1200" height="720" fill="url(#bg)"/>
<circle cx="1050" cy="110" r="230" fill="#8b5cf6" opacity="0.18"/>
<circle cx="90" cy="650" r="210" fill="#8b5cf6" opacity="0.12"/>
<rect x="70" y="64" width="1060" height="592" rx="42" fill="#0b1220" opacity="0.78" filter="url(#shadow)" stroke="#1f2937"/>
<text x="112" y="136" class="font small" fill="#8b5cf6">lentoludens summary</text>
<text x="112" y="205" class="font title">MCP와 AI 도구 보안</text>
<text x="112" y="287" class="font sub">편리한 연결일수록 권한 범위를 작게 잡아야 합니다</text>
<circle cx="170" cy="500" r="48" fill="#8b5cf6" opacity="0.95"/>
<text x="170" y="509" text-anchor="middle" class="font label">1</text>
<text x="170" y="596" text-anchor="middle" class="font label">도구 연결</text>
<path d="M 236 500 L 369 500" stroke="#334155" stroke-width="5" stroke-linecap="round"/>
<path d="M 353 487 L 369 500 L 353 513" fill="none" stroke="#334155" stroke-width="5" stroke-linecap="round" stroke-linejoin="round"/>
<circle cx="435" cy="500" r="48" fill="#8b5cf6" opacity="0.95"/>
<text x="435" y="509" text-anchor="middle" class="font label">2</text>
<text x="435" y="596" text-anchor="middle" class="font label">파일·API 접</text>
<text x="435" y="626" text-anchor="middle" class="font label">근</text>
<path d="M 501 500 L 634 500" stroke="#334155" stroke-width="5" stroke-linecap="round"/>
<path d="M 618 487 L 634 500 L 618 513" fill="none" stroke="#334155" stroke-width="5" stroke-linecap="round" stroke-linejoin="round"/>
<circle cx="700" cy="500" r="48" fill="#8b5cf6" opacity="0.95"/>
<text x="700" y="509" text-anchor="middle" class="font label">3</text>
<text x="700" y="596" text-anchor="middle" class="font label">권한 제한</text>
<path d="M 766 500 L 899 500" stroke="#334155" stroke-width="5" stroke-linecap="round"/>
<path d="M 883 487 L 899 500 L 883 513" fill="none" stroke="#334155" stroke-width="5" stroke-linecap="round" stroke-linejoin="round"/>
<circle cx="965" cy="500" r="48" fill="#8b5cf6" opacity="0.95"/>
<text x="965" y="509" text-anchor="middle" class="font label">4</text>
<text x="965" y="596" text-anchor="middle" class="font label">로그·차단 규칙</text>
</svg>